<svg xmlns="http://www.w3.org/2000/svg" width="95" height="23" viewBox="0 0 95 23">
    <g fill="none" fill-rule="evenodd">
        <path fill="#FFF" d="M-672-38H768v152H-672z"/>
        <path fill="#484D51" d="M8.586 16.571c-2.934 0-5.195-2.261-5.195-7 0-4.761 2.453-7.047 5.34-7.047.697 0 1.394.143 2.116.524L11.424 6h1.66l-.097-3.571c-1.539-.858-3.126-1.167-4.69-1.167C3.704 1.262 0 4.357 0 9.548c0 5.214 3.487 8.31 8.225 8.31 1.9 0 3.56-.43 4.955-1.191l.096-3.548H11.64l-.578 2.905c-.817.357-1.66.547-2.477.547zm12.194 1.215c-3.271 0-5.796-2.238-5.796-6.024 0-3.81 2.693-6.048 5.796-6.048 3.078 0 5.82 2.215 5.82 6.048 0 3.81-2.573 6.024-5.82 6.024zm0-1.167c1.731 0 2.67-1.548 2.67-4.833 0-3.286-.939-4.905-2.67-4.905-1.732 0-2.646 1.619-2.646 4.905 0 3.285.914 4.833 2.646 4.833zm13.396 1.167c-3.27 0-5.796-2.238-5.796-6.024 0-3.81 2.693-6.048 5.796-6.048 3.078 0 5.82 2.215 5.82 6.048 0 3.81-2.573 6.024-5.82 6.024zm0-1.167c1.732 0 2.67-1.548 2.67-4.833 0-3.286-.938-4.905-2.67-4.905S31.53 8.5 31.53 11.786c0 3.285.914 4.833 2.646 4.833zm7.263-15.548V2l1.756.238v10.214c0 1.096-.024 2.5-.048 3.715l-1.636.31v.975h6.23v-.976l-1.612-.286a151.873 151.873 0 0 1-.048-3.333l1.25-1.214 3.223 5.81h4.065v-.977l-1.587-.333-3.68-6.429 2.429-2.357 2.189-.31v-1h-5.58v1l1.707.358-4.016 4V3.57l.096-3.357-.36-.214-4.378 1.071zM58.443 3.5c1.01 0 1.804-.714 1.804-1.69 0-1.024-.794-1.715-1.804-1.715-1.034 0-1.828.69-1.828 1.715 0 .976.794 1.69 1.828 1.69zm2.934 13.952v-.976l-1.467-.286c-.024-1.19-.024-2.714-.024-3.738V9.31l.072-3.358-.385-.238-4.329 1.5v.905l1.708.214c.048.953.072 1.69.072 3v1.12c0 1.023 0 2.547-.024 3.714l-1.587.31v.975h5.964zm9.957-11.738c-1.443 0-2.838.69-4.088 2.072l-.169-1.834-.385-.238-4.016 1.5v.905l1.683.214c.049.953.073 1.548.073 2.857v1.262c0 1.024 0 2.548-.024 3.715l-1.564.31v.975h5.94v-.976l-1.418-.286c-.024-1.19-.024-2.69-.024-3.738V8.905c.938-.81 1.852-1.19 2.693-1.19 1.203 0 1.684.618 1.684 2.475v2.262c0 1.072 0 2.548-.024 3.715l-1.54.31v.975h5.941v-.976l-1.467-.286c-.024-1.166-.024-2.666-.024-3.738V9.976c0-2.952-1.178-4.262-3.27-4.262zm11.304 16.048c2.525 0 3.848-.929 3.848-2.12 0-.88-.553-1.618-2.092-1.618h-2.67c-.601 0-1.13-.048-1.587-.143-.457.595-.65 1.095-.65 1.786 0 1.476 1.13 2.095 3.151 2.095zM77.876 9.595c0-2.357 1.756-3.88 4.69-3.88 1.467 0 2.621.356 3.415 1l2.718-1.025.36.239v1.666h-2.332c.336.548.505 1.238.505 2 0 2.334-1.732 3.857-4.666 3.857a7.234 7.234 0 0 1-1.996-.262c-.313.429-.457.81-.457 1.31 0 .595.336.976 1.395.976h3.006c3.127 0 4.377 1.262 4.377 3.262 0 2.238-2.213 4.262-6.47 4.262-3.727 0-5.074-1.262-5.074-2.833 0-1.024.625-1.834 2.164-2.572-1.01-.357-1.467-1.024-1.467-1.88 0-.905.553-1.786 1.732-2.834-1.227-.643-1.9-1.786-1.9-3.286zm4.714-2.833c-1.299 0-2.044 1.119-2.044 2.833 0 1.715.673 2.81 1.972 2.81 1.347 0 2.068-1.143 2.068-2.881 0-1.667-.721-2.762-1.996-2.762zm10.486 11.024c1.082 0 1.924-.857 1.924-1.881 0-1.072-.842-1.953-1.924-1.953-1.082 0-1.924.881-1.924 1.953 0 1.024.842 1.88 1.924 1.88z"/>
    </g>
</svg>
